# xmcd
#
# Track frame offsets: 
#        150
#        20820
#        50072
#        71442
#        96767
#        121823
#        142627
#
# Disc length: 2288 seconds
#
# Revision: 0
# Processed by: cddbd v1.5.2PL0 Copyright (c) Steve Scherf et al.
# Submitted via: ExactAudioCopyFreeDBPlugin 1.0
#
DISCID=5908ee07
DTITLE=Jamila and The Other Heroes - Sit el Kon
DYEAR=2020
DGENRE=No, thanks.
TTITLE0=Farashat
TTITLE1=Abu Dub
TTITLE2=Fight Club
TTITLE3=Aliens in my Bed
TTITLE4=Sit El Kon
TTITLE5=Inner Child
TTITLE6=Khalas! - The Umbilical Cho
EXTD=
EXTT0=
EXTT1=
EXTT2=
EXTT3=
EXTT4=
EXTT5=
EXTT6=
PLAYORDER=
